<?xml version="1.0" standalone="no"?>
<!DOCTYPE svg PUBLIC "-//W3C//DTD SVG 20010904//EN"
 "http://www.w3.org/TR/2001/REC-SVG-20010904/DTD/svg10.dtd">
<svg version="1.0" xmlns="http://www.w3.org/2000/svg"
 width="701.000000pt" height="701.000000pt" viewBox="0 0 701.000000 701.000000"
 preserveAspectRatio="xMidYMid meet">
<metadata>
Created by potrace 1.14, written by Peter Selinger 2001-2017
</metadata>
<g transform="translate(0.000000,701.000000) scale(0.100000,-0.100000)"
fill="#000000" stroke="none">
<path d="M5990 5612 c-161 -109 -254 -269 -234 -406 9 -57 54 -156 71 -156 9
0 43 13 78 30 98 47 158 125 185 239 22 92 -3 332 -34 331 -6 -1 -36 -18 -66
-38z"/>
<path d="M877 5633 c-8 -15 -18 -64 -27 -137 -11 -85 1 -183 29 -249 37 -87
131 -166 218 -183 28 -6 31 -3 54 48 19 42 24 70 24 138 0 78 -3 90 -35 150
-39 72 -119 158 -194 208 -51 33 -62 37 -69 25z"/>
<path d="M6560 5484 c-158 -26 -211 -47 -277 -113 -47 -47 -71 -94 -89 -169
l-13 -54 37 -16 c25 -11 65 -17 127 -17 80 0 96 3 145 29 78 41 166 136 219
235 24 45 39 86 35 91 -11 9 -148 20 -184 14z"/>
<path d="M218 5473 c-23 -6 -23 -15 3 -66 59 -116 133 -199 224 -253 63 -36
177 -45 255 -19 l52 17 -7 37 c-3 20 -19 64 -36 98 -47 98 -135 158 -265 182
-57 11 -192 13 -226 4z"/>
<path d="M5501 5382 c-161 -157 -211 -334 -137 -483 15 -30 37 -64 48 -76 l20
-21 36 20 c57 33 121 98 150 153 33 64 42 200 19 290 -21 84 -57 175 -67 175
-5 0 -36 -26 -69 -58z"/>
<path d="M1357 5403 c-59 -113 -81 -313 -44 -398 31 -69 68 -114 130 -155 70
-47 75 -45 121 40 53 98 52 210 -4 320 -33 64 -111 162 -157 197 l-32 25 -14
-29z"/>
<path d="M5063 5218 c-11 -13 -37 -50 -56 -83 -84 -144 -101 -289 -48 -400 16
-33 49 -80 75 -105 l46 -44 27 20 c46 34 102 116 119 173 37 123 -13 301 -121
437 l-20 25 -22 -23z"/>
<path d="M1823 5189 c-110 -160 -143 -329 -89 -446 26 -55 100 -143 121 -143
20 0 105 97 125 143 27 60 34 134 20 203 -14 70 -77 205 -118 253 l-29 35 -30
-45z"/>
<path d="M5830 4944 c-425 -222 -808 -461 -1206 -756 -207 -153 -264 -190
-372 -240 -134 -62 -218 -81 -337 -76 -92 3 -108 7 -169 38 -108 54 -220 199
-266 343 -12 40 -30 41 -30 3 0 -49 -80 -187 -149 -256 -150 -152 -334 -178
-573 -82 -136 55 -201 94 -428 259 -358 260 -583 409 -883 582 -169 97 -447
246 -447 238 0 -2 46 -42 103 -88 137 -112 395 -366 521 -513 259 -304 471
-627 657 -1002 l79 -162 58 -23 c76 -31 234 -138 354 -241 54 -46 152 -129
218 -185 113 -97 215 -161 283 -177 80 -19 238 -32 307 -26 158 16 246 58 400
190 289 247 344 292 415 340 76 51 189 110 212 110 7 0 53 80 102 178 197 393
404 707 663 1007 120 138 383 395 512 500 128 104 152 124 146 125 -3 0 -79
-39 -170 -86z m-3360 -1199 c76 -56 160 -154 194 -225 27 -56 31 -76 31 -145
0 -67 -5 -90 -29 -142 -16 -35 -34 -67 -40 -73 -20 -16 -126 41 -177 97 -64
68 -91 143 -91 253 0 102 36 270 58 270 3 0 28 -16 54 -35z m2040 -57 c49
-176 24 -332 -68 -430 -46 -49 -143 -105 -162 -93 -6 3 -22 30 -37 58 -20 40
-27 71 -31 132 -5 98 17 165 84 254 39 52 164 161 184 161 4 0 18 -37 30 -82z
m-944 -349 c214 -79 269 -368 99 -518 -78 -68 -194 -100 -285 -79 -64 15 -148
74 -187 132 -121 178 -28 425 179 480 61 16 121 11 194 -15z"/>
<path d="M6192 5001 c-59 -20 -110 -58 -156 -114 l-30 -37 38 -39 c21 -21 61
-52 90 -67 47 -27 59 -29 156 -29 97 0 110 3 172 32 62 29 117 64 178 112 25
20 25 20 5 36 -39 30 -176 95 -232 110 -76 20 -156 18 -221 -4z"/>
<path d="M495 4991 c-57 -21 -161 -72 -190 -95 -20 -15 -20 -16 10 -41 102
-86 223 -136 335 -138 67 -2 84 2 140 30 36 18 80 47 98 66 28 29 32 38 23 55
-20 37 -111 110 -158 126 -63 22 -193 20 -258 -3z"/>
<path d="M2798 4890 c-236 -40 -380 -280 -308 -514 44 -142 162 -243 312 -268
174 -28 347 62 421 219 110 236 -22 505 -273 559 -71 15 -83 15 -152 4z"/>
<path d="M3925 4882 c-154 -53 -248 -162 -277 -322 -31 -164 71 -355 227 -426
271 -124 575 69 575 366 0 110 -33 192 -108 272 -82 88 -176 128 -297 128 -40
-1 -92 -8 -120 -18z"/>
<path d="M5800 4666 c-51 -13 -102 -42 -144 -81 l-27 -25 30 -43 c39 -57 94
-105 150 -131 66 -29 191 -28 291 3 87 27 170 69 170 86 0 17 -122 114 -185
149 -95 52 -194 67 -285 42z"/>
<path d="M918 4647 c-82 -35 -136 -69 -198 -125 l-55 -50 74 -36 c229 -110
440 -75 542 91 l22 36 -34 28 c-65 55 -117 74 -209 77 -71 2 -94 -1 -142 -21z"/>
<path d="M5464 4322 c-52 -18 -154 -88 -154 -105 0 -20 43 -78 84 -114 118
-104 302 -104 499 0 31 16 57 33 57 37 0 13 -82 83 -137 118 -119 76 -247 99
-349 64z"/>
<path d="M1280 4323 c-52 -17 -121 -50 -160 -76 -47 -32 -120 -97 -120 -107 0
-12 154 -79 220 -96 88 -22 182 -15 254 20 59 29 146 116 146 146 0 23 -83 85
-140 105 -40 14 -167 19 -200 8z"/>
<path d="M4796 3208 c-85 -11 -173 -68 -224 -146 -16 -25 -15 -26 36 -73 116
-107 259 -116 432 -29 60 30 160 106 160 121 0 14 -84 64 -157 94 -79 31 -167
43 -247 33z"/>
<path d="M1935 3191 c-93 -28 -215 -91 -215 -111 0 -15 112 -92 187 -128 100
-47 208 -56 293 -23 51 19 150 92 150 111 0 21 -97 112 -145 135 -73 36 -185
43 -270 16z"/>
<path d="M4469 3111 c-259 -216 -470 -560 -584 -952 -44 -151 -84 -343 -87
-416 l-3 -58 178 -3 c97 -1 177 -1 177 0 1 2 9 59 20 128 56 377 176 804 337
1208 36 90 63 165 61 168 -3 2 -47 -31 -99 -75z"/>
<path d="M2362 3159 c192 -471 314 -882 373 -1256 15 -92 29 -178 31 -190 4
-23 6 -23 176 -23 l171 0 -7 67 c-4 37 -18 120 -32 185 -98 467 -292 843 -570
1108 -87 83 -151 132 -142 109z"/>
</g>
</svg>
